<svg version="1.1" xmlns="http://www.w3.org/2000/svg" viewBox="0 0 1187.50244140625 668.310791015625" width="1187.50244140625" height="668.310791015625">
  <!-- svg-source:excalidraw -->
  
  <defs>
    <style>
      @font-face {
        font-family: "Virgil";
        src: url("https://excalidraw.com/Virgil.woff2");
      }
      @font-face {
        font-family: "Cascadia";
        src: url("https://excalidraw.com/Cascadia.woff2");
      }
    </style>
  </defs>
  <rect x="0" y="0" width="1187.50244140625" height="668.310791015625" fill="#ffffff"></rect><g stroke-linecap="round" transform="translate(10 466.2681884765625) rotate(0 188.5 81)"><path d="M0.65 -0.63 C145.46 1.34, 289 0.85, 377.3 -1.06 M0.28 -0.55 C77.56 0.78, 154.4 0.54, 377.44 -0.09 M377.53 -1.44 C377.12 30.92, 377.07 64.04, 378.68 161.16 M377.55 -0.23 C376.89 39.78, 377.66 79.38, 376.73 162.29 M377.73 162.68 C277.39 160.66, 175.95 160.54, -0.34 161.23 M377.28 162.13 C281.77 163.48, 187.93 163.56, 0.36 162.54 M1.9 162.27 C-0.24 114.57, 0.44 67.27, -1.23 -0.67 M-0.83 161.39 C-1.71 104.38, -0.38 45.97, -0.72 -0.61" stroke="#000000" stroke-width="1" fill="none"></path></g><g transform="translate(127.95892333984375 518.2681884765625) rotate(0 80.5 26)"><text x="0" y="18" font-family="Virgil, Segoe UI Emoji" font-size="20px" fill="#a61e4d" text-anchor="start" style="white-space: pre;" direction="ltr">Home Assistant </text><text x="0" y="44" font-family="Virgil, Segoe UI Emoji" font-size="20px" fill="#a61e4d" text-anchor="start" style="white-space: pre;" direction="ltr">(Raspberry Pi)</text></g><g stroke-linecap="round"><g transform="translate(387.45501708984375 537.2681884765625) rotate(0 34.828838541731216 0.5041263391775885)"><path d="M-0.71 0.58 C11.02 0.65, 58.76 0.09, 70.37 -0.04 M1.11 -0.16 C12.8 0.1, 58.88 1.03, 70.04 1.17" stroke="#a61e4d" stroke-width="1" fill="none"></path></g></g><g stroke-linecap="round" transform="translate(464.39703369140625 463.2681884765625) rotate(0 90.5 86.5)"><path d="M-1.82 -0.93 C45.46 -0.68, 92.63 1.97, 181.83 -0.41 M0.2 -0.63 C71.68 1.37, 143.35 2.05, 181.05 -0.93 M181.99 -1.33 C183.46 66.37, 183.87 132.36, 181.54 172.98 M180.35 -0.36 C180.01 43.74, 180.22 89.45, 181.23 172.8 M181.38 174.84 C139.82 174.79, 96.16 174.69, -1.57 174.27 M181.5 172.18 C140.77 173.38, 98.9 173.71, -0.31 172.18 M-1.44 171.57 C2.98 128.31, 0.46 87.45, -1.69 1.9 M-0.68 173.01 C2.21 135.22, 1.54 98.34, -0.88 0.63" stroke="#a61e4d" stroke-width="1" fill="none"></path></g><g transform="translate(469.39703369140625 536.7681884765625) rotate(0 85.5 13)"><text x="85.5" y="18" font-family="Virgil, Segoe UI Emoji" font-size="20px" fill="#a61e4d" text-anchor="middle" style="white-space: pre;" direction="ltr">Zigbee Controller</text></g><g stroke-linecap="round" transform="translate(878.50244140625 428.4976806640625) rotate(0 149.5 114.90655517578125)"><path d="M0.18 -1.34 C105.41 1.37, 210.57 1.99, 298.32 -0.69 M-0.42 0.05 C73.56 -0.64, 147.47 -0.79, 298.41 0.35 M298.76 -1.52 C296.67 87.67, 299.45 176.77, 300.27 228.55 M299.27 0.71 C298.55 83.01, 298.16 167.12, 299.57 230.37 M298.03 230.61 C202.02 227.44, 107.91 230.08, 0.82 229 M298.77 229.65 C219.52 229.26, 138.63 228.76, 0.29 230.16 M1.15 230.17 C-3.12 176.37, -0.08 119.32, 1.04 -0.28 M-0.6 229.61 C0.46 165.7, 0.43 102.85, -0.65 -0.23" stroke="#a61e4d" stroke-width="1" fill="none"></path></g><g stroke-linecap="round"><g transform="translate(655.7813720703125 540.3681640625) rotate(0 106.50397025570277 -0.2863207899034137)"><path d="M-0.2 -0.26 C35.14 -0.35, 177.52 -0.35, 213.21 -0.25" stroke="#a61e4d" stroke-width="1.5" fill="none" stroke-dasharray="1.5 7"></path></g></g><g transform="translate(721.7813720703125 467.3681640625) rotate(0 46.5 26)"><text x="0" y="18" font-family="Virgil, Segoe UI Emoji" font-size="20px" fill="#a61e4d" text-anchor="start" style="white-space: pre;" direction="ltr">Zigbee</text><text x="0" y="44" font-family="Virgil, Segoe UI Emoji" font-size="20px" fill="#a61e4d" text-anchor="start" style="white-space: pre;" direction="ltr">Protocol </text></g><g transform="translate(883.50244140625 517.4042358398438) rotate(0 144.5 26)"><text x="144.5" y="18" font-family="Virgil, Segoe UI Emoji" font-size="20px" fill="#a61e4d" text-anchor="middle" style="white-space: pre;" direction="ltr">Local Bytes Zigbee Smart </text><text x="144.5" y="44" font-family="Virgil, Segoe UI Emoji" font-size="20px" fill="#a61e4d" text-anchor="middle" style="white-space: pre;" direction="ltr">Plug</text></g><g stroke-linecap="round" transform="translate(906.5643310546875 10) rotate(0 122 131)"><path d="M-0.25 132.29 C-0.25 132.29, -0.25 132.29, -0.25 132.29 M-0.25 132.29 C-0.25 132.29, -0.25 132.29, -0.25 132.29 M0.85 133.66 C28.66 103.07, 58.22 72.44, 78.91 48.02 M2.91 134.5 C31.41 102.9, 58.56 71.83, 78.88 47.11 M5.14 137.21 C34.49 102.38, 65.27 69.62, 125.64 1.61 M5.91 137.71 C40.96 99.72, 74.68 59.29, 124.44 0.29 M7.33 141.89 C49.31 93.11, 91.88 45.95, 127.22 2.47 M8.72 140.67 C35.79 109.29, 63.84 76.57, 127.08 4.14 M9.54 145.31 C57.34 90.68, 107.38 34.66, 131.51 6.12 M11.61 142.68 C50.12 95.99, 92.04 49.56, 130 7.08 M15.44 147.45 C46.59 105.71, 82.24 68.21, 130.91 11.9 M14.24 147.79 C55.44 99.39, 97.83 50.8, 131.34 10.14 M16.17 150.04 C61.71 95.49, 103.94 47.86, 134.9 13.23 M15.57 149.06 C63.66 95.33, 111.66 41.21, 134.74 12.17 M18.32 151.19 C48.77 114.86, 83.16 77.24, 137.38 17.07 M19.96 152.14 C49.79 116.26, 81.02 81.67, 136.75 16.21 M22.54 156.5 C65.05 106.57, 106.9 55.08, 142.57 19.22 M21.84 155.37 C48.4 125.72, 74.56 94.96, 140.82 19.74 M26.17 158.17 C57.25 122.68, 89.1 87.77, 145.07 23.01 M24.35 157.77 C54.42 124.82, 83.78 89.21, 143.36 22.29 M27.2 161.69 C65.65 120.59, 102.95 78.8, 144.38 26.35 M27.46 160.67 C58.9 123.65, 92.05 85.8, 146.39 25.49 M30.23 165.13 C72.71 113.87, 118.27 63.07, 147.56 28.92 M29.84 163.99 C74.38 112.88, 118.56 62.29, 148.22 27.1 M34.44 165.82 C78.59 117.27, 124.67 63.98, 153.22 30.77 M33.06 165.8 C65.52 133.11, 95.39 99.5, 151.54 30.65 M36.18 171.48 C77.69 121.58, 121.42 69.46, 153.43 31.69 M36.15 170.41 C63.13 137.18, 90.87 105.95, 155.33 33.64 M39.61 171.3 C77.58 126.31, 114.18 85.69, 157.06 38.61 M38.31 172.4 C74.8 131.71, 111.28 87.95, 156.34 35.98 M41.37 173.85 C78.58 133.31, 118.03 89.5, 159.68 40.92 M41.63 175.43 C86.11 124.65, 131.96 72.7, 158.99 40.19 M45.13 178.2 C77.72 137.03, 115.31 99.41, 162.93 41.91 M43.79 178.35 C74.58 142.99, 105.18 109.79, 162.84 43.78 M48.27 181.03 C71.17 154.47, 95.41 126.94, 164.38 46.11 M46.64 181.21 C84.72 137.36, 122.5 93.27, 164.49 45.55 M49.81 183.28 C78.53 153.31, 106.5 120.5, 168.92 50.66 M50.39 184.86 C92.29 137.56, 130.85 91.98, 167.04 49.88 M52.38 185.5 C86.77 147.92, 124.77 105.5, 170.64 52.72 M53.47 187.22 C88.74 144.22, 127.13 100.39, 170.05 51.07 M54.18 190.5 C91.24 146.67, 127.16 107.23, 172.84 56.04 M54.65 190.88 C90.76 151.33, 123.84 112.02, 173.59 54.88 M59.6 194.46 C102.47 142.07, 149.92 88.46, 174.65 58.14 M57.71 193.17 C103.94 142.19, 148.44 89.17, 176.91 56.62 M61.85 198.02 C85.08 164.81, 113.11 134.83, 177.59 61.4 M60.08 196.17 C91.07 162.59, 120.49 127.3, 179.11 61.18 M62.91 200.99 C97.73 160.13, 134.45 118.81, 181.65 63.71 M62.95 200.33 C95.86 158.91, 130.69 119.95, 181.23 62.61 M67.48 201.65 C109.6 156.9, 148.93 108.88, 183.11 65.81 M67.16 202.75 C95.67 167.81, 126.13 132.29, 184.17 66.44 M70.97 203.41 C93.34 174.01, 120.22 146.03, 185.96 70.7 M69.37 204.75 C112.3 155.42, 152.46 108.57, 186.16 69.98 M70.13 209.92 C119.28 153.21, 162.95 100.04, 191.74 70.99 M72.65 207.94 C118.62 154.69, 163.01 102.5, 190.67 72.62 M73.58 212.2 C98.16 181.71, 123.42 153.19, 190.94 76.3 M75.18 210.26 C101.58 177.52, 132.21 143.67, 191.83 76.18 M77.92 215.29 C114.41 171.5, 150.55 125.68, 196.87 76.62 M76.3 213.58 C116.17 166.51, 155.58 121.14, 194.44 79.19 M81.54 217.55 C106.57 188.78, 131.13 159.5, 197.03 81.67 M80.51 215.96 C125.82 161.53, 171.13 108.22, 197.33 81.22 M84.69 217.38 C111.87 186.3, 136.79 155.37, 198.99 84.31 M83.48 219.28 C120.85 176.21, 156.89 134.73, 201.32 85.18 M84.06 224.3 C117.84 183.04, 153.05 142.84, 202.39 87.13 M84.8 223.25 C131.69 171.03, 177.02 119.35, 203.36 86.88 M87.38 226.05 C119.79 189.45, 152.03 153.95, 205.61 89.61 M88.56 225.47 C126.89 179.95, 165.95 135.33, 205.1 91.13 M89.43 227.26 C137.66 175.71, 182.71 125.06, 208.26 91.21 M91.47 229.04 C131.75 182.6, 172.65 136.4, 209.63 93.73 M93.95 232.8 C134.09 181.11, 176.03 136.62, 211.32 98.02 M94.83 230.82 C126.76 192.32, 161.11 154.94, 211.53 97.11 M97.64 234.42 C135.32 186.11, 175.24 139.86, 214.92 98.11 M96.57 233.03 C137.92 186.68, 178.32 139.15, 214.81 98.59 M100.78 237.85 C147.01 184.56, 190.68 127.94, 217.79 100.95 M99.93 237.3 C135.54 196.99, 170.28 157.24, 216.35 102.73 M101.79 237.95 C138.22 197.37, 177.53 153.83, 219.06 104.72 M102.13 240.71 C134.03 204.51, 164.56 168.16, 219.84 105.6 M105.95 240.58 C141.13 199.07, 181.65 159.1, 221.72 107.76 M105.1 242.65 C150.76 191.66, 193.32 141.05, 221.24 109.14 M107.99 245.72 C147.05 198.66, 186.78 152.38, 226.42 111.88 M108.13 246.84 C137.52 210.66, 167.33 177.38, 224.67 111.42 M110.66 246.58 C139.27 217.3, 168.64 185.29, 226.89 113.76 M110.57 249.41 C152.9 200.09, 195.58 151.22, 227.88 115 M112.77 252.27 C153.13 204.77, 193 158.28, 231.8 116.34 M113.86 252.47 C144.16 212.8, 177.19 175.92, 230.18 117.22 M115.11 255.11 C147.37 219.46, 175.31 184.61, 232.15 120.19 M115.53 254.4 C156.01 208.86, 195.88 165.09, 231.89 120.51 M120.39 257.33 C163.8 204.95, 207.34 157.87, 235.1 122.83 M119.24 257.42 C147.12 224.93, 173.39 194.75, 236.26 122.72 M119.92 262.14 C156.5 223.09, 193.18 181.27, 240.05 125.46 M121.48 259.69 C151.35 225.65, 182.54 189.45, 239.55 124.66 M124.17 264.85 C162.83 218.06, 204.02 170.25, 241.23 127.98 M124.18 263.31 C168.35 214.75, 210.85 165.41, 241.73 128.17 M204.86 177.74 C212.32 165.08, 222.75 155.35, 242.25 132.19 M204.94 176.11 C217.67 160.8, 232.67 145.96, 245.1 132.21" stroke="#fd7e14" stroke-width="0.5" fill="none"></path><path d="M123.68 1.49 C172.07 50.38, 219.03 104.22, 242.86 130.74 M123.7 0.34 C156.64 37.07, 190.67 73.37, 244.34 132.09 M242.24 133.5 C207.1 171.56, 165.51 212.53, 122.85 261.75 M243.02 131.75 C202.37 177.63, 158.98 222.8, 123.91 261.39 M122.34 262.77 C94.53 231.28, 68.53 206.04, 0.86 131.91 M123.89 262.97 C97.64 233.73, 72.16 205.98, 0.28 131.67 M1.21 130.17 C38.54 93.53, 76.2 50.87, 121.08 -0.83 M-0.41 132.91 C42.43 85.98, 84.47 41.83, 122.08 -0.04" stroke="#a61e4d" stroke-width="1" fill="none"></path></g><g transform="translate(911.5643310546875 128) rotate(0 117 13)"><text x="117" y="18" font-family="Virgil, Segoe UI Emoji" font-size="20px" fill="#a61e4d" text-anchor="middle" style="white-space: pre;" direction="ltr">Lamp</text></g><g stroke-linecap="round"><g transform="translate(1032.5643310546875 428) rotate(0 -0.9488095380365849 -77.6769544838695)"><path d="M1.17 -0.22 C0.61 -25.95, -2.35 -127.78, -3.06 -153.35 M0.32 -1.38 C0.09 -26.94, -0.72 -129.4, -0.91 -155.14" stroke="#a61e4d" stroke-width="1" fill="none"></path></g></g></svg>